<svg xmlns="http://www.w3.org/2000/svg" xmlns:xlink="http://www.w3.org/1999/xlink" viewBox="0 0 48 48" id="Agreement"><defs><linearGradient id="b" x1="992.183" x2="1019.298" y1="516.081" y2="545.959" gradientTransform="translate(-1522.705 211.343) scale(1.53785)" gradientUnits="userSpaceOnUse" xlink:href="#a"></linearGradient><linearGradient id="a"><stop offset="0" stop-color="#c657f5" class="stopColorff1679 svgShape"></stop><stop offset="1" stop-color="#b60bff" class="stopColorff770b svgShape"></stop></linearGradient></defs><g transform="translate(0 -1004.362)" fill="#000000" class="color000000 svgShape"><rect width="48" height="48" y="1004.362" fill="url(#b)" rx="10.144" ry="10.144"></rect><path fill="#ffffff" d="M29.489 1015.36a.5.5 0 0 0-.074.01H13.997v26H33.996v-21.423a.5.5 0 0 0 0-.16v-.125l-.083-.082a.5.5 0 0 0-.008-.01.5.5 0 0 0-.096-.098.5.5 0 0 0-.008-.01l-3.906-3.906a.5.5 0 0 0-.084-.086.5.5 0 0 0-.008-.01l-.1-.1h-.128a.5.5 0 0 0-.086-.01zm-14.492 1.005h14v4h4v20h-18v-24zm15 .707 2.293 2.293h-2.293v-2.293zm-10 1.293v1h7v-1h-7zm-3 3v1h14v-1h-14zm0 2v1h14v-1h-14zm0 2v1h14v-1h-14zm0 2v1h14v-1h-14zm0 2v1h14v-1h-14zm0 2v1h10v-1h-10zm7 4c-.823 0-1.5.678-1.5 1.5 0 .823.677 1.5 1.5 1.5.822 0 1.5-.677 1.5-1.5 0-.822-.678-1.5-1.5-1.5zm-7 1v1h4v-1h-4zm7 0c.282 0 .5.218.5.5 0 .282-.218.5-.5.5a.493.493 0 0 1-.5-.5c0-.282.218-.5.5-.5zm3 0v1h4v-1h-4z" color="#000" font-family="sans-serif" font-weight="400" overflow="visible" style="line-height:normal;text-indent:0;text-align:start;text-decoration-line:none;text-decoration-style:solid;text-decoration-color:#000;text-transform:none;block-progression:tb;isolation:auto;mix-blend-mode:normal" class="colorffffff svgShape"></path></g></svg>