<?xml version="1.0" encoding="UTF-8"?>
<!DOCTYPE svg PUBLIC "-//W3C//DTD SVG 1.1//EN" "http://www.w3.org/Graphics/SVG/1.1/DTD/svg11.dtd">
<!-- Creator: CorelDRAW -->
<svg xmlns="http://www.w3.org/2000/svg" xml:space="preserve" width="2.66666in" height="2.66666in" version="1.1" style="shape-rendering:geometricPrecision; text-rendering:geometricPrecision; image-rendering:optimizeQuality; fill-rule:evenodd; clip-rule:evenodd"
viewBox="0 0 2667 2667"
 xmlns:xlink="http://www.w3.org/1999/xlink">
 <defs>
  <style type="text/css">
   <![CDATA[
    .fil2 {fill:#000002}
    .fil1 {fill:#CF5300}
    .fil3 {fill:#FF3131}
    .fil0 {fill:#FF6600}
    .fil5 {fill:#FF9E5C}
    .fil6 {fill:#FFA721}
    .fil4 {fill:#FFE4AF}
   ]]>
  </style>
 </defs>
 <rect class="fil0" width="2667" height="2667" rx="500" ry="500"/>
 <g id="Layer_x0020_1">
  <metadata id="CorelCorpID_0Corel-Layer"/>
  <path class="fil1" d="M1773 1886l0 278c0,49 -40,89 -90,89l-1061 0c-49,0 -89,-40 -89,-89l0 -1456c0,-50 40,-90 89,-90l218 0 0 -21c0,-50 40,-90 90,-90l80 0c24,-55 79,-94 143,-94 63,0 118,39 142,94l81 0c49,0 89,40 89,90l0 21 218 0c19,0 37,6 52,16l0 -131c0,-50 40,-90 89,-90l354 0c49,0 89,40 89,90l0 1287 -5 25 -180 387c-15,31 -46,51 -81,51 -35,0 -66,-20 -81,-51 -30,-65 -60,-128 -90,-193 -19,-41 -39,-82 -57,-123zm140 -1108l176 0 0 -186 -176 0 0 186zm51 1094l37 80 37 -80 -74 0zm-945 -1143l267 0 0 -43 -74 0c-23,0 -44,-9 -59,-23 -16,14 -36,23 -60,23l-74 0 0 43zm156 1346l419 0 0 -233c-10,4 -22,7 -34,7l-233 0c32,58 -7,134 -78,134l-72 0c17,30 15,65 -2,92zm419 -1069l0 -209 -128 0c0,26 -3,51 -14,67 -1,1 -2,3 -4,5 20,6 37,19 49,37 19,30 18,66 2,94l61 0c12,0 23,2 34,6zm-738 -137c-10,-14 -16,-32 -16,-51l0 -21 -129 0 0 209c11,-4 22,-6 34,-6l61 0c-28,-51 -3,-114 50,-131z"/>
  <path class="fil0" d="M1706 1886l0 278c0,49 -40,89 -89,89l-1062 0c-49,0 -89,-40 -89,-89l0 -1456c0,-50 40,-90 89,-90l219 0 0 -21c0,-50 40,-90 89,-90l81 0c23,-55 78,-94 142,-94 64,0 118,39 142,94l81 0c49,0 89,40 89,90l0 21 219 0c19,0 36,6 51,16l0 -131c0,-50 40,-90 89,-90l354 0c50,0 90,40 90,90l0 1287 -6 25 -180 387c-14,31 -46,51 -81,51 -35,0 -66,-20 -81,-51 -30,-65 -60,-128 -90,-193 -19,-41 -38,-82 -57,-123zm141 -1108l175 0 0 -186 -175 0 0 186zm50 1094l37 80 37 -80 -74 0zm-945 -1143l268 0 0 -43 -75 0c-23,0 -44,-9 -59,-23 -16,14 -36,23 -59,23l-75 0 0 43zm157 1346l418 0 0 -233c-10,4 -21,7 -34,7l-233 0c33,58 -7,134 -77,134l-73 0c17,30 15,65 -1,92zm418 -1069l0 -209 -127 0c-1,26 -4,51 -14,67 -2,1 -3,3 -4,5 19,6 37,19 48,37 19,30 18,66 2,94l61 0c12,0 24,2 34,6zm-737 -137c-11,-14 -16,-32 -16,-51l0 -21 -129 0 0 209c10,-4 21,-6 33,-6l61 0c-28,-51 -2,-114 51,-131z"/>
  <path class="fil2" d="M1934 2187c-9,0 -17,-5 -20,-13 -19,-42 -179,-378 -179,-390l0 -1 0 -1280c0,-13 10,-23 22,-23l354 0c13,0 23,10 23,23l0 1279 -3 11 -176 381c-4,8 -12,13 -21,13zm-22 -427l0 -870 -132 0 0 870 132 0zm45 -870l0 870 132 0 0 -870 -132 0zm-340 1297l-1062 0c-12,0 -22,-11 -22,-23l0 -1456c0,-13 10,-23 22,-23l285 0 0 -88c0,-13 10,-23 23,-23l135 0c-3,-51 37,-94 88,-94 51,0 91,43 88,94l135 0c13,0 23,10 23,23l0 88 285 0c12,0 22,10 22,23l0 1456c0,12 -10,23 -22,23zm-731 -1391l400 0 0 -177 -141 0c-16,0 -27,-17 -20,-32 13,-28 -8,-62 -39,-62 -31,0 -52,34 -39,62 7,15 -4,32 -20,32l-141 0 0 177zm-308 1345l1016 0 0 -1411 -262 0c0,6 3,90 -2,97 -5,7 -10,14 -20,14l0 0 0 0 -1 0 -446 0c-13,0 -23,-10 -23,-23l0 -88 -262 0 0 1411zm778 -1163l-540 0c-29,0 -29,-46 0,-46l540 0c29,0 29,46 0,46zm137 134l-815 0c-29,0 -29,-46 0,-46l815 0c30,0 30,46 0,46zm0 134l-815 0c-29,0 -29,-46 0,-46l815 0c30,0 30,46 0,46zm0 134l-815 0c-29,0 -29,-46 0,-46l815 0c30,0 30,46 0,46zm0 134l-815 0c-29,0 -29,-46 0,-46l815 0c30,0 30,46 0,46zm0 134l-815 0c-29,0 -29,-45 0,-45l815 0c30,0 30,45 0,45zm0 134l-815 0c-29,0 -29,-45 0,-45l815 0c30,0 30,45 0,45zm-310 134l-505 0c-29,0 -29,-45 0,-45l505 0c29,0 29,45 0,45zm-150 134l-355 0c-29,0 -29,-45 0,-45l355 0c30,0 29,45 0,45zm747 -1205l309 0 0 -320 -309 0 0 320zm13 960l141 305 142 -305 -283 0z"/>
  <path class="fil3" d="M886 796l400 0 0 -177 -141 0c-16,0 -27,-17 -20,-32 13,-28 -8,-62 -39,-62 -31,0 -52,34 -39,62 7,15 -4,32 -20,32l-141 0 0 177z"/>
  <path class="fil4" d="M1309 841l-446 0c-13,0 -23,-10 -23,-23l0 -88 -262 0 0 1411 1016 0 0 -1411 -262 0c0,6 3,90 -2,97 -5,7 -10,14 -20,14l0 0 -1 0zm47 91c29,0 29,46 0,46l-540 0c-29,0 -29,-46 0,-46l540 0zm-678 134l815 0c30,0 30,46 0,46l-815 0c-29,0 -29,-46 0,-46zm0 134l815 0c30,0 30,46 0,46l-815 0c-29,0 -29,-46 0,-46zm0 134l815 0c30,0 30,46 0,46l-815 0c-29,0 -29,-46 0,-46zm0 134l815 0c30,0 30,46 0,46l-815 0c-29,0 -29,-46 0,-46zm0 135l815 0c30,0 30,45 0,45l-815 0c-29,0 -29,-45 0,-45zm0 134l815 0c30,0 30,45 0,45l-815 0c-29,0 -29,-45 0,-45zm0 134l505 0c29,0 29,45 0,45l-505 0c-29,0 -29,-45 0,-45zm0 134l355 0c30,0 29,45 0,45l-355 0c-29,0 -29,-45 0,-45z"/>
  <polygon class="fil5" points="2076,1805 1793,1805 1934,2110 "/>
  <polygon class="fil6" points="1957,1760 2089,1760 2089,890 1957,890 "/>
  <polygon class="fil6" points="1912,1760 1912,890 1780,890 1780,1760 "/>
  <polygon class="fil3" points="1780,845 2089,845 2089,525 1780,525 "/>
 </g>
</svg>
