<?xml version="1.0" encoding="UTF-8"?>
<!DOCTYPE svg PUBLIC "-//W3C//DTD SVG 1.1//EN" "http://www.w3.org/Graphics/SVG/1.1/DTD/svg11.dtd">
<!-- Creator: CorelDRAW -->
<svg xmlns="http://www.w3.org/2000/svg" xml:space="preserve" width="2.66666in" height="2.66666in" version="1.1" style="shape-rendering:geometricPrecision; text-rendering:geometricPrecision; image-rendering:optimizeQuality; fill-rule:evenodd; clip-rule:evenodd"
viewBox="0 0 2667 2667"
 xmlns:xlink="http://www.w3.org/1999/xlink">
 <defs>
  <style type="text/css">
   <![CDATA[
    .fil0 {fill:#00AB94}
    .fil1 {fill:white}
   ]]>
  </style>
 </defs>
 <g id="Layer_x0020_1">
  <metadata id="CorelCorpID_0Corel-Layer"/>
  <path class="fil0" d="M1333 0c964,0 1334,370 1334,1333 0,964 -370,1334 -1334,1334 -963,0 -1333,-370 -1333,-1334 0,-963 370,-1333 1333,-1333z"/>
  <path class="fil1" d="M1758 1158l-850 0c-61,0 -61,-93 0,-93l850 0c62,0 62,93 0,93zm23 1029l-895 0c-111,0 -202,-91 -202,-202l0 -1303c0,-111 91,-202 202,-202l895 0c111,0 202,91 202,202l0 1303c0,111 -91,202 -202,202zm-895 -1614c-60,0 -109,49 -109,109l0 1303c0,60 49,108 109,108l895 0c60,0 108,-48 108,-108l0 -1303c0,-60 -48,-109 -108,-109l-895 0zm447 1423c-4,0 -8,0 -12,-1 -206,-55 -269,-236 -269,-319l0 -249c0,-36 39,-59 70,-41 69,40 160,-17 182,-35 17,-14 41,-14 59,0 22,18 112,75 182,35 31,-18 70,5 70,41 0,74 2,180 0,250 -4,86 -64,263 -270,318 -4,1 -8,1 -12,1zm-188 -322c1,13 14,174 188,227 174,-53 188,-212 188,-227l0 -183c-73,11 -143,-20 -188,-47 -44,27 -114,58 -188,47l0 183 0 0zm150 114c-13,0 -25,-5 -33,-13l-69 -69c-44,-44 22,-110 66,-66l36 36 113 -114c43,-43 109,23 66,66l-147 147c-8,8 -20,13 -32,13zm340 -1024l-604 0c-61,0 -61,-93 0,-93l604 0c62,0 62,93 0,93zm123 197l-850 0c-61,0 -61,-93 0,-93l850 0c62,0 62,93 0,93z"/>
 </g>
</svg>
