<svg xmlns="http://www.w3.org/2000/svg" viewBox="0 0 24 24" id="Shield"><path d="M5.072 0A5.061 5.061 0 0 0 0 5.072v13.856A5.061 5.061 0 0 0 5.072 24h13.856A5.061 5.061 0 0 0 24 18.928V5.072A5.061 5.061 0 0 0 18.928 0H5.072zm6.94 5.576c1.619 1.512 3.745 2.24 5.947 2.766-.105 4.781-2.197 8.769-5.963 10.082-1.961-.635-3.442-1.97-4.443-3.787-.976-1.77-1.46-3.982-1.512-6.282 2.315-.351 4.382-1.18 5.97-2.779zm2.658 4.281-3.647 3.192-1.67-1.668-.707.707 2.33 2.33 4.354-3.809-.66-.752z" fill="#f11212" class="color000000 svgShape"></path></svg>