<svg xmlns="http://www.w3.org/2000/svg" viewBox="0 0 26 26" id="Star"><path fill-rule="evenodd" d="M6 0C2.676 0 0 2.676 0 6v14c0 3.324 2.676 6 6 6h14c3.324 0 6-2.676 6-6V6c0-3.324-2.676-6-6-6H6zm7.049 6c.333.003.5.182.64.334.14.152.26.33.383.535.246.41.496.926.74 1.45.245.523.482 1.053.686 1.464.102.206.196.382.272.506.044.073.087.123.107.149.03.011.093.037.176.058.14.035.337.075.564.111.454.074 1.032.145 1.606.225.573.08 1.14.165 1.605.28.233.057.438.12.625.208.187.09.41.195.51.512.1.317-.02.531-.121.711-.102.18-.235.347-.393.527-.314.36-.729.757-1.152 1.15-.424.394-.856.784-1.186 1.104-.164.16-.303.305-.398.414-.056.064-.092.122-.11.149-.002.032-.007.099-.001.183.01.145.035.344.07.57.07.454.18 1.024.281 1.592.101.569.194 1.134.229 1.61.017.238.023.451-.004.656-.027.205-.06.447-.332.64-.272.194-.512.147-.715.106a3.292 3.292 0 0 1-.625-.209c-.44-.187-.947-.458-1.453-.738-.507-.28-1.01-.568-1.418-.781a6.886 6.886 0 0 0-.518-.25c-.078-.033-.145-.05-.176-.059-.03.008-.096.024-.175.055a7.138 7.138 0 0 0-.522.242c-.41.207-.92.488-1.431.76-.511.271-1.022.534-1.465.715-.222.09-.424.159-.627.197-.204.038-.447.082-.715-.115-.268-.198-.297-.442-.32-.647a3.256 3.256 0 0 1 .005-.658c.043-.476.146-1.039.256-1.606.11-.566.23-1.133.307-1.586.039-.226.066-.424.078-.568.007-.085.003-.153.002-.185-.017-.027-.053-.084-.107-.149a7.09 7.09 0 0 0-.393-.42c-.324-.326-.749-.722-1.166-1.123-.417-.4-.824-.803-1.133-1.168a3.265 3.265 0 0 1-.385-.535c-.099-.182-.215-.397-.109-.713.106-.316.329-.418.518-.504.188-.086.395-.144.628-.197.467-.107 1.035-.184 1.61-.254.574-.07 1.154-.133 1.61-.2.227-.032.424-.068.566-.1.082-.02.145-.046.175-.057.02-.025.064-.075.11-.147a7.07 7.07 0 0 0 .28-.502c.21-.408.457-.934.71-1.453.253-.52.511-1.03.764-1.435.126-.203.248-.38.39-.53.143-.15.313-.324.647-.324zm-.01 1.135c-.055.071-.107.13-.178.244-.213.342-.464.835-.713 1.346-.248.51-.496 1.039-.72 1.474a7.733 7.733 0 0 1-.323.576c-.104.166-.18.3-.37.436s-.341.162-.532.207c-.19.045-.41.084-.652.12-.486.07-1.067.131-1.631.2-.565.07-1.115.146-1.508.237-.13.03-.205.058-.29.088.05.074.093.142.179.244.26.307.653.698 1.062 1.091.41.394.836.791 1.182 1.14.173.173.326.333.451.483.125.15.23.264.3.487.071.222.05.374.034.568a7.77 7.77 0 0 1-.09.656c-.083.483-.202 1.053-.31 1.61a16.188 16.188 0 0 0-.24 1.504c-.012.132-.008.21-.006.3.087-.025.163-.043.287-.093.373-.152.869-.405 1.37-.672.503-.267 1.013-.549 1.452-.77.22-.11.42-.204.602-.277.181-.072.32-.135.554-.135.234.002.374.07.555.145.18.075.378.173.596.287.434.228.942.518 1.44.793.497.275.987.534 1.358.691.123.052.2.074.286.1.002-.09.01-.17 0-.303-.03-.401-.118-.947-.217-1.506-.1-.558-.21-1.131-.285-1.615a7.7 7.7 0 0 1-.078-.656c-.013-.195-.032-.347.042-.569.075-.22.18-.332.307-.48.128-.148.283-.306.46-.477.35-.342.784-.734 1.2-1.12.416-.388.815-.772 1.08-1.075.088-.1.132-.166.184-.24-.085-.03-.16-.062-.29-.094-.39-.096-.94-.181-1.503-.26-.563-.078-1.142-.15-1.627-.228-.242-.04-.46-.08-.65-.127-.19-.048-.342-.078-.53-.217s-.261-.275-.363-.441a7.748 7.748 0 0 1-.312-.582c-.218-.44-.457-.97-.698-1.485-.24-.514-.484-1.012-.691-1.357-.069-.114-.12-.176-.174-.248z" fill="#87fdc3" class="color000000 svgShape"></path></svg>